# xmcd
#
# Track frame offsets: 
#        150
#        24125
#        40380
#        53311
#        68530
#        84074
#        100274
#        116587
#        134249
#        151094
#        167637
#        188876
#        202283
#
# Disc length: 2874 seconds
#
# Revision: 0
# Processed by: cddbd v1.5.2PL0 Copyright (c) Steve Scherf et al.
# Submitted via: ExactAudioCopy v0.99pb5
#
DISCID=a10b380d
DTITLE=Various Artist - Paris :Presents: Hard Truth Soldiers vol. 2
DYEAR=2009
DGENRE=Hip-Hop
TTITLE0=Paris - Martial Law
TTITLE1=Uno The Prophet - Conscious Thug
TTITLE2=Jasiri X - The Box
TTITLE3=T-K.A.S.H. - Pardon Me
TTITLE4=Uno The Prophet - Love It Or Leave It
TTITLE5=Paris - True
TTITLE6=Truth Universal - Change My Style
TTITLE7=The Conscious Daughters - Friends
TTITLE8=T-K.A.S.H. - Dead Man Walking
TTITLE9=NYOil - Night Stick
TTITLE10=Sandy Griffith - Cream Row
TTITLE11=Paris - Side Effect
TTITLE12=The Conscious Daughters - Dirty Little Secret
EXTD=
EXTT0=
EXTT1=
EXTT2=
EXTT3=
EXTT4=
EXTT5=
EXTT6=
EXTT7=
EXTT8=
EXTT9=
EXTT10=
EXTT11=
EXTT12=
PLAYORDER=
